<?xml version="1.0" encoding="UTF-8" standalone="no"?>
<!-- Created with Inkscape (http://www.inkscape.org/) -->

<svg
   width="6000"
   height="4000"
   viewBox="0 0 1587.4999 1058.3334"
   version="1.1"
   id="svg8"
   sodipodi:docname="logo.svg"
   inkscape:version="1.3.2 (091e20e, 2023-11-25, custom)"
   xmlns:inkscape="http://www.inkscape.org/namespaces/inkscape"
   xmlns:sodipodi="http://sodipodi.sourceforge.net/DTD/sodipodi-0.dtd"
   xmlns="http://www.w3.org/2000/svg"
   xmlns:svg="http://www.w3.org/2000/svg"
   xmlns:rdf="http://www.w3.org/1999/02/22-rdf-syntax-ns#"
   xmlns:cc="http://creativecommons.org/ns#"
   xmlns:dc="http://purl.org/dc/elements/1.1/">
  <defs
     id="defs2" />
  <sodipodi:namedview
     id="base"
     pagecolor="#ffffff"
     bordercolor="#666666"
     borderopacity="1.0"
     inkscape:pageopacity="0.0"
     inkscape:pageshadow="2"
     inkscape:zoom="0.11313709"
     inkscape:cx="3000.7843"
     inkscape:cy="879.46402"
     inkscape:document-units="px"
     inkscape:current-layer="layer1"
     showgrid="false"
     units="px"
     inkscape:showpageshadow="false"
     showguides="true"
     inkscape:guide-bbox="true"
     inkscape:window-width="1920"
     inkscape:window-height="1017"
     inkscape:window-x="-8"
     inkscape:window-y="-8"
     inkscape:window-maximized="1"
     inkscape:pagecheckerboard="0"
     inkscape:deskcolor="#d1d1d1">
    <sodipodi:guide
       position="440.82765,150.84025"
       orientation="0,1"
       id="guide195"
       inkscape:locked="false" />
    <sodipodi:guide
       position="596.3451,282.38698"
       orientation="0,1"
       id="guide199"
       inkscape:locked="false" />
    <sodipodi:guide
       position="793.75,368.44392"
       orientation="-1,0"
       id="guide1"
       inkscape:locked="false"
       inkscape:label=""
       inkscape:color="rgb(0,134,229)" />
  </sodipodi:namedview>
  <metadata
     id="metadata5">
    <rdf:RDF>
      <cc:Work
         rdf:about="">
        <dc:format>image/svg+xml</dc:format>
        <dc:type
           rdf:resource="http://purl.org/dc/dcmitype/StillImage" />
        <dc:title />
      </cc:Work>
    </rdf:RDF>
  </metadata>
  <g
     inkscape:label="Camada 1"
     inkscape:groupmode="layer"
     id="layer1"
     transform="translate(0,761.33335)">
    <flowRoot
       xml:space="preserve"
       id="flowRoot5463"
       style="font-style:normal;font-variant:normal;font-weight:normal;font-stretch:normal;font-size:40px;line-height:1.25;font-family:'Agency FB';-inkscape-font-specification:'Agency FB';letter-spacing:0px;word-spacing:0px;fill:#000000;fill-opacity:1;stroke:none"><flowRegion
         id="flowRegion5465"
         style="font-style:normal;font-variant:normal;font-weight:normal;font-stretch:normal;font-family:'Agency FB';-inkscape-font-specification:'Agency FB'"><rect
           id="rect5467"
           width="196.61528"
           height="55.242718"
           x="488.34561"
           y="190.24858"
           style="-inkscape-font-specification:'Agency FB';font-family:'Agency FB';font-weight:normal;font-style:normal;font-stretch:normal;font-variant:normal;" /></flowRegion><flowPara
         id="flowPara5469" /></flowRoot>
    <path
       id="path678"
       style="fill:#000000;stroke:#ff0000;stroke-width:0.35381329px;stroke-linecap:butt;stroke-linejoin:miter;stroke-opacity:1"
       d="m 123.41378,80.690918 c -8.93534,-13.62636 -17.79607,-27.229171 -15.2759,-37.234839 l 9.90539,4.89304 c 0.20393,-4.841249 -1.90089,-9.30986 -0.11902,-12.888975 5.70162,1.635105 11.20479,5.650243 16.58868,11.098842 0.0522,-3.43496 1.07034,-6.386705 2.38686,-9.189374 3.21876,2.839992 5.00398,6.635714 6.32504,10.740821 2.35369,-2.625537 2.85997,-5.251061 3.69963,-7.876598 9.29521,10.268986 24.4997,14.603927 32.81926,12.769639 -2.1079,13.525477 -1.65258,25.43806 13.0522,38.963538 14.87312,7.343371 105.99378,-5.239428 116.31492,-44.691984 l 17.1853,-70.650705 c 29.97039,-19.561611 65.51667,-11.940518 102.63449,3.341591 l -26.25526,-36.757463 c 35.69626,15.149848 71.14115,29.538258 127.93505,108.601597 l -51.55592,-92.371033 84.52205,48.798833 146.9952,86.282984 h 185.70384 l 222.45421,-136.03351 c -20.5265,29.192814 -13.7803,33.1798295 -48.2143,72.798887 47.1155,-41.2103818 64.9716,-66.340677 119.615,-83.732457 l -24.3916,33.35796 c 34.6427,-14.990221 99.7608,-30.855035 107.0482,7.89932 -0.3377,-1.350285 10.2498,47.063137 10.2498,47.063137 3.2252,11.193225 3.3,26.9434 26.4771,36.955194 43.0941,18.290703 78.6774,32.841567 104.4231,8.428855 -5.2355,-10.172411 -1.3783,-20.103943 1.2966,-27.806112 l 39.8031,-22.046561 6.5639,7.995948 6.9219,-7.279892 3.5802,8.473317 7.7573,-6.921858 4.177,8.592654 7.8766,-5.251074 1.5514,6.205816 4.6544,-2.267517 -14.3212,29.238892 c 20.0858,-3.856581 31.0609,-4.029313 69.4574,-51.79461 11.1936,-4.380126 14.5829,-18.00228675 13.7075,-36.674774 17.9935,-20.234388 11.1165,-43.672402 -1.0128,-51.139086 -22.6295,-15.691557 -33.0134,-35.465061 -40.5062,-56.202261 -5.2219,-24.85276 -8.1946,-53.88276 -4.5568,-95.18948 -57.7203,-59.77858 -62.9941,-112.06484 -59.0715,-163.03729 l -34.7678,13.67083 c -22.538,-63.8096 33.5288,-106.63161 67.9306,-142.54348 -75.6695,25.94138 -127.8641,18.20863 -171.8966,99.67446 -35.0369,-21.06556 -71.9215,-39.10784 -113.9235,-48.77617 -4.3914,-19.21062 -11.1802,-41.29806 -18.734,-64.30353 -10.5211,18.51387 -19.9693,37.20658 -26.6886,56.35412 -31.0229,1.74883 -67.2957,-0.46106 -95.2975,10.95549 27.5723,0.65745 55.0189,1.67781 76.9878,18.52232 -26.4799,6.57799 -48.6041,8.80032 -72.9059,13.20048 l -30.0273,-21.65125 c 52.3089,-43.54493 65.1796,-94.42884 61.5183,-144.89142 -63.6765,25.83267 -128.54902,48.72948 -199.15528,57.5525 -82.04084,-28.39822 -127.31422,-26.16421 -215.35781,-3.37552 -70.71839,-0.74741 -131.38192,-33.48739 -195.77971,-54.34574 1.59151,47.28394 1.60118,94.48098 59.56781,144.86245 l -26.12128,23.1053 -78.03938,-12.61226 c 20.47919,-16.18141 54.10433,-16.40281 80.99045,-20.93521 -29.94923,-11.52002 -63.54551,-10.27546 -95.79472,-13.7457 -6.7195,-23.77874 -17.53875,-46.3119 -28.70384,-68.18537 -3.93229,17.61628 -7.64262,33.16763 -17.21511,47.59474 -55.25979,2.80216 -99.12801,34.24636 -127.0881,55.69597 -24.07754,-35.14781 -69.18835,-62.43468 -156.11743,-74.09252 42.11397,43.84111 82.23812,80.24234 69.01225,139.16505 -14.92284,-2.47014 -26.48632,-10.25763 -37.61996,-16.68687 4.44714,94.92931 -30.33452,123.29587 -59.409076,159.71473 1.346077,36.07875 3.351539,70.8883 -8.554635,107.10266 -5.877066,14.08993 -12.002065,27.460936 -20.305959,40.069752 C 1.9171493,-48.347343 28.173324,-32.014412 30.935669,-9.8388163 30.213153,3.0904232 36.286135,13.977486 50.007355,22.566101 60.46061,37.49066 66.634411,61.555462 123.41405,80.690918 Z"
       inkscape:connector-curvature="0"
       sodipodi:nodetypes="cccccccccccccccccccccccccccccccccccccccccccccccccccccccccccccccccccccccccccc" />
    <path
       style="fill:#ff0000;stroke:#ff0000;stroke-width:0.99999994"
       d="m 2120.2893,2932.7107 0.023,497.1845 439.0625,4.4798 0.4143,428.125 h 806.25 v -428.125 h 565.625 l 1.1049,-501.6643 z"
       transform="matrix(0.26458333,0,0,0.26458333,0,-761.33335)"
       id="rect190"
       inkscape:connector-curvature="0"
       sodipodi:nodetypes="ccccccccc" />
    <path
       style="fill:#ffffff;stroke:#ffffff;stroke-width:0.95473939px;stroke-linecap:butt;stroke-linejoin:miter;stroke-opacity:1"
       d="m 1347.6527,58.742457 14.2967,-19.224678 0.2386,16.707938 11.9342,-13.12766 0.2384,17.543329 8.4733,-15.753196 3.7295,23.033089 c -13.6274,1.20149 -26.7389,-1.456542 -38.9107,-9.178822 z"
       id="path103"
       inkscape:connector-curvature="0"
       sodipodi:nodetypes="cccccccc" />
    <path
       style="fill:#ff0000;stroke:#ff0000;stroke-width:0.95473939px;stroke-linecap:butt;stroke-linejoin:miter;stroke-opacity:1"
       d="m 1408.493,38.682388 c -0.6672,10.805409 -3.4245,20.889108 -10.1182,27.075439 -6.0982,1.685173 -13.3948,2.554035 -20.4336,2.625898 10.8722,-8.409464 21.5597,-17.218659 30.5518,-29.701337 z"
       id="path105"
       inkscape:connector-curvature="0"
       sodipodi:nodetypes="cccc" />
    <path
       style="fill:#ffffff;stroke:#ffffff;stroke-width:0.95473939px;stroke-linecap:butt;stroke-linejoin:miter;stroke-opacity:1"
       d="m 1394.8282,-57.268915 c 1.9406,13.773853 1.61,27.093418 5.8257,41.322263 1.5295,3.853772 3.3738,7.7075445 7.6004,11.5613165 4.6929,4.73638104 12.6783,5.5216398 19.3931,7.8318277 l 30.5815,11.5613148 c 1.0444,4.317904 0.8013,8.421233 3.7295,13.053096 5.1449,-5.982817 5.1302,-11.496553 6.713,-17.155515 1.4578,5.842887 0.7125,12.78737 4.675,17.377872 5.717,-3.598947 6.3374,-10.381208 9.4968,-15.140149 1.5341,6.789898 1.1491,13.899651 4.6525,20.361322 6.1453,-4.33978 10.1409,-9.1095 14.6316,-13.780222 -1.4479,5.490134 -2.8957,11.175694 -4.3436,16.349502 5.096,-2.297069 7.2847,-5.009434 10.0469,-7.639879 l 22.9041,1.491779 c 4.7108,-4.724025 6.0865,-7.894826 8.2048,-13.426026 -11.5232,3.17568 -24.6359,-5.469287 -34.5972,-9.6738853 -65.5734,8.7281443 -89.5287,-10.4287211 -109.5141,-64.0946167 z"
       id="path70"
       inkscape:connector-curvature="0"
       sodipodi:nodetypes="ccccccccccccccccc" />
    <path
       style="fill:#4d4d4d;stroke:#000000;stroke-width:0.95473939px;stroke-linecap:butt;stroke-linejoin:miter;stroke-opacity:1"
       d="m 512.33356,-563.62175 c 55.47995,22.30703 113.03442,42.91671 188.22009,49.10089 56.54837,-18.44819 118.02987,-27.73486 199.81329,0.68194 68.15862,-11.62022 137.08136,-26.1874 185.49206,-52.16967 -0.085,54.97368 -33.9415,90.38089 -69.2184,119.00144 35.9447,18.14862 74.6458,53.00222 85.5856,89.33632 -22.1518,-21.24733 -36.4452,-25.46885 -47.7371,-23.18653 24.784,20.24542 47.055,33.41588 57.2845,73.65134 -28.929,-11.17739 -60.7436,-26.70552 -91.3823,-25.91436 45.9908,30.2643 82.2025,65.23389 102.9754,116.61458 -36.8257,-14.23413 -73.6513,-31.40896 -110.4769,-30.00608 14.456,22.51452 31.6313,43.39754 28.6423,76.37915 -22.6147,-23.43697 -47.55346,-47.28814 -80.81198,-58.30731 13.31445,16.32634 35.77164,27.92671 35.80274,54.21557 -17.71753,-14.61534 -38.07191,-29.68547 -59.3302,-26.59631 12.08771,20.71312 27.01032,40.98241 27.61926,77.40208 -13.4525,-15.72974 -18.30819,-23.94193 -42.62237,-26.25534 -39.56875,8.25416 -45.76466,21.26769 -55.92047,49.782829 -12.88268,42.345727 -12.49571,42.366417 3.75078,85.585509 -56.34034,22.4202951 -83.86296,35.12005 -145.59771,0 14.07218,-42.963272 14.26707,-42.963272 2.04589,-88.313328 -15.76407,-22.8011 -36.31016,-36.03822 -64.78595,-33.41588 -19.88261,3.89697 -49.86511,8.99613 -56.94336,34.43882 1.79947,-40.71491 -5.98158,-73.42574 38.53055,-90.01829 -21.37777,-5.5537 -44.05551,13.74125 -61.03507,32.39295 2.75014,-23.38949 22.10846,-39.54127 34.09778,-52.85164 -25.13031,3.44239 -53.17731,24.99845 -74.67422,53.87456 -1.21108,-28.13153 11.24548,-59.05048 38.18952,-91.72316 -37.88251,3.86742 -74.8615,10.19418 -106.38518,31.37002 17.93196,-47.2651 53.45981,-83.66213 102.29343,-111.84091 -30.48282,0.10112 -60.44426,8.54436 -90.01825,23.18653 12.39302,-26.92154 28.55169,-52.43094 55.23848,-73.9923 -15.56072,2.32467 -24.56603,8.33623 -41.25838,24.20945 8.40462,-37.88064 36.30851,-66.0988 81.49383,-89.33632 -64.45655,-50.12156 -61.52931,-82.14188 -68.87766,-117.29655 z"
       id="path21"
       inkscape:connector-curvature="0"
       sodipodi:nodetypes="ccccccccccccccccccccccccccccccccccc" />
    <path
       style="fill:#666666;fill-opacity:1;stroke:#666666;stroke-width:0.95473939px;stroke-linecap:butt;stroke-linejoin:miter;stroke-opacity:1"
       d="m 696.12094,-515.01462 c 17.94193,23.219 32.61527,48.39915 46.03201,74.33326 l -47.73694,-38.87153 59.6712,84.22165 -157.8273,-22.50029 c 129.92792,34.64772 151.15786,97.58314 166.3974,162.64668 -35.83676,-34.03953 -69.54544,-67.17007 -114.95535,-73.99658 l 52.16972,54.21556 -65.80885,-1.70489 c 44.82347,17.64266 84.63251,41.8041 120.36542,71.26447 10.35926,7.93928 21.12457,9.78803 32.39286,4.09174 l 12.95723,-8.52445 10.5703,7.84249 c 36.46373,19.05381 54.99679,-42.88087 147.98465,-71.26448 -17.95823,-4.18259 -35.91645,0.54142 -53.87465,7.16055 3.49309,-28.49388 23.9868,-46.25051 44.32719,-64.10392 -64.97201,12.88109 -77.64184,49.02017 -117.61019,89.49154 23.9505,-115.07675 71.0599,-148.24076 170.12086,-177.80493 -55.36606,-3.80933 -108.35283,-1.12982 -153.78118,22.16358 17.23572,-27.75471 33.45616,-55.69978 64.7859,-80.81187 l -50.12384,28.64217 c 10.69145,-21.59529 21.29437,-43.19059 38.18956,-64.78588 -67.23983,-23.3044 -135.18972,-27.43957 -204.246,-1.70487 z"
       id="path153"
       inkscape:connector-curvature="0"
       sodipodi:nodetypes="ccccccccccccccccccccccc" />
    <path
       style="fill:#666666;stroke:#4d4d4d;stroke-width:0.95473939px;stroke-linecap:butt;stroke-linejoin:miter;stroke-opacity:1"
       d="m 1079.7737,-529.2128 c -74.777,74.97989 -125.91468,79.01517 -165.37002,83.6645 34.39462,2.14632 67.93145,11.64162 102.02592,-1.82052 29.2358,-23.20927 52.4257,-49.06889 63.3441,-81.84399 z"
       id="path4701"
       inkscape:connector-curvature="0"
       sodipodi:nodetypes="ccccc" />
    <path
       style="fill:#ff0000;stroke:#000000;stroke-width:0.95473939px;stroke-linecap:butt;stroke-linejoin:miter;stroke-opacity:1"
       d="m 704.3045,-252.4449 c -19.95574,-49.30705 -33.75692,-104.68036 3.75066,-212.08855 -23.29291,136.25929 -11.26016,131.20371 -3.75066,212.08855 z"
       id="path44"
       inkscape:connector-curvature="0"
       sodipodi:nodetypes="ccc" />
    <path
       style="fill:#ff0000;stroke:#000000;stroke-width:0.95473939px;stroke-linecap:butt;stroke-linejoin:miter;stroke-opacity:1"
       d="m 718.14021,-250.06893 c -19.95574,-49.307 -33.75692,-104.68033 3.75067,-212.08852 -23.29292,136.25931 -11.26017,131.2037 -3.75067,212.08852 z"
       id="path44-5"
       inkscape:connector-curvature="0"
       sodipodi:nodetypes="ccc" />
    <path
       style="fill:#ff0000;stroke:#000000;stroke-width:0.95473939px;stroke-linecap:butt;stroke-linejoin:miter;stroke-opacity:1"
       d="m 691.20288,-252.79674 c -19.95573,-49.30703 -33.75691,-104.68035 3.75069,-212.08855 -23.29293,136.25931 -11.26019,131.20371 -3.75069,212.08855 z"
       id="path44-54"
       inkscape:connector-curvature="0"
       sodipodi:nodetypes="ccc" />
    <path
       style="fill:#000000;stroke:#000000;stroke-width:0.95473939px;stroke-linecap:butt;stroke-linejoin:miter;stroke-opacity:1"
       d="m 774.88687,-219.23363 c -22.55044,-24.02007 -33.78448,-45.95555 -7.8003,-61.03506 17.78572,-12.69773 50.03812,-10.93393 67.75135,3.85773 25.71947,19.51303 -0.2728,46.88704 -18.3242,61.72368 5.2655,-8.79913 12.60353,-15.16406 14.46646,-27.72744 -7.38537,6.16418 -11.01559,11.46238 -17.11866,17.48034 -11.38083,10.77642 -19.16017,11.11498 -30.13853,0.84387 l -18.80637,-19.04752 c -0.007,5.54487 2.91113,13.21938 9.97025,23.9044 z"
       id="path145"
       inkscape:connector-curvature="0"
       sodipodi:nodetypes="ccccccccc" />
    <path
       style="fill:#000000;stroke:#000000;stroke-width:0.95473939px;stroke-linecap:butt;stroke-linejoin:miter;stroke-opacity:1"
       d="m 757.83796,-272.85247 c 21.43658,-22.24329 64.54532,-20.58181 83.28398,3.2393 -24.97745,-6.14037 -57.40375,-10.18873 -83.28398,-3.2393 z"
       id="path147"
       inkscape:connector-curvature="0"
       sodipodi:nodetypes="ccc" />
    <path
       style="fill:#000000;stroke:#000000;stroke-width:0.95473939px;stroke-linecap:butt;stroke-linejoin:miter;stroke-opacity:1"
       d="m 693.39309,-239.01035 c 20.53151,29.66988 34.45202,58.908 37.84854,93.08708 l -25.57335,-16.70795 c 23.34396,31.70764 47.34221,63.165056 40.57641,106.385202 -0.0975,-0.12865 1.06068,20.708218 12.6162,25.914401 34.05805,20.6036986 59.18021,10.962939 81.49391,-8.183457 3.39696,-5.98315 5.683,-13.354935 5.45563,-23.868479 -0.20207,-44.793427 18.06829,-67.817837 35.4617,-98.542777 -6.31633,-0.28008 -11.09136,4.55752 -16.02593,8.86544 4.25376,-32.37682 18.79262,-61.09796 36.48466,-88.99534 l -58.30728,46.03207 c -19.44923,12.31641 -25.58597,5.32773 -45.35009,3.96381 -16.76463,1.36392 -26.73824,6.12779 -41.94038,-0.895 z"
       id="path69"
       inkscape:connector-curvature="0"
       sodipodi:nodetypes="cccccccccccccc" />
    <path
       style="fill:#ff0000;stroke:#ff0000;stroke-width:0.95473927px;stroke-linecap:butt;stroke-linejoin:miter;stroke-opacity:1"
       d="m 867.08586,-213.29586 c -8.52506,7.15861 -14.17148,11.60365 -21.28096,16.79424 2.0845,18.98968 7.77102,35.21966 0.31039,65.11734 14.46975,-26.29682 22.43114,-57.68743 21.31112,-82.20993 z"
       id="path71-5"
       inkscape:connector-curvature="0"
       sodipodi:nodetypes="ccccc" />
    <path
       style="fill:#ff0000;stroke:#ff0000;stroke-width:0.95473939px;stroke-linecap:butt;stroke-linejoin:miter;stroke-opacity:1"
       d="m 728.17289,-212.75503 c -1.12002,24.52251 7.35287,55.19701 21.82262,81.49383 -7.46024,-29.89768 -2.0845,-46.13719 -2e-5,-65.12687 z"
       id="path71"
       inkscape:connector-curvature="0"
       sodipodi:nodetypes="cccc" />
    <path
       style="fill:#ffffff;stroke:#ffffff;stroke-width:0.95473939px;stroke-linecap:butt;stroke-linejoin:miter;stroke-opacity:1"
       d="m 753.23479,-34.9348 c 0.66266,-13.04253 3.03935,-16.963774 7.331,-23.01609 -0.72762,6.654045 0.67522,13.467741 1.87538,21.311114 2.09875,-3.32732 4.58979,-6.508025 5.62617,-9.376874 0.43425,2.597347 2.66445,7.788909 5.11464,13.298175 1.80081,-4.76797 4.70815,-9.193644 6.22894,-13.420395 1.92475,5.910292 3.12247,11.942779 5.7053,17.85307 2.09179,-5.925319 4.27722,-11.80807 6.09285,-17.759474 1.28959,6.047096 2.07158,11.417414 3.96603,18.271022 2.02139,-6.194444 4.81164,-12.303646 6.26556,-18.498079 2.09521,5.659655 3.14481,11.243388 6.00971,16.793103 2.59896,-6.073332 3.46918,-11.229455 4.41139,-16.750534 1.87763,4.66848 5.00804,10.831621 7.90647,15.386679 1.1845,-5.069797 1.93829,-10.217905 1.87538,-15.514514 2.26345,3.413436 4.11573,4.770022 7.28838,7.842523 4.09741,-9.359807 2.79839,-14.574016 3.23931,-20.11772 3.87368,4.559904 7.29206,11.313311 7.82181,19.956275 -42.70291,38.40163927 -80.96172,8.344902 -86.75832,3.741719 z"
       id="path90"
       inkscape:connector-curvature="0" />
    <path
       style="fill:#ffffff;stroke:#ffffff;stroke-width:0.95473939px;stroke-linecap:butt;stroke-linejoin:miter;stroke-opacity:1"
       d="m 751.95614,-194.85367 c 0.68816,7.96443 3.44594,16.28047 9.09546,25.17516 0.37473,-6.90268 0.4583,-13.3293 4.0322,-18.95231 -4.97138,-0.45794 -9.28065,-2.7131 -13.12766,-6.22285 z"
       id="path92"
       inkscape:connector-curvature="0"
       sodipodi:nodetypes="cccc" />
    <path
       style="fill:#ffffff;stroke:#ffffff;stroke-width:0.95473939px;stroke-linecap:butt;stroke-linejoin:miter;stroke-opacity:1"
       d="m 767.95412,-187.9063 c -0.49483,6.01622 2.97316,12.47933 6.97901,18.49556 -0.13024,-7.96204 2.47963,-13.78329 5.96349,-18.9218 -2.12835,0.6339 -4.5145,1.20977 -12.9425,0.42624 z"
       id="path94"
       inkscape:connector-curvature="0"
       sodipodi:nodetypes="cccc" />
    <path
       style="fill:#ffffff;stroke:#ffffff;stroke-width:0.95473939px;stroke-linecap:butt;stroke-linejoin:miter;stroke-opacity:1"
       d="m 784.86056,-189.14228 c -0.11941,8.53889 1.67765,15.93226 7.41623,20.97016 0.007,-7.5706 1.67577,-14.99019 4.17697,-22.33407 z"
       id="path96"
       inkscape:connector-curvature="0"
       sodipodi:nodetypes="cccc" />
    <path
       style="fill:#ffffff;stroke:#ffffff;stroke-width:0.95473939px;stroke-linecap:butt;stroke-linejoin:miter;stroke-opacity:1"
       d="m 799.82099,-190.46358 c 3.78582,6.84969 3.54695,14.60493 2.85567,22.46194 5.62314,-5.78107 9.69591,-12.30964 8.99327,-21.14064 z"
       id="path98"
       inkscape:connector-curvature="0"
       sodipodi:nodetypes="cccc" />
    <path
       style="fill:#ffffff;stroke:#ffffff;stroke-width:0.95473939px;stroke-linecap:butt;stroke-linejoin:miter;stroke-opacity:1"
       d="m 817.05282,-187.56533 c 2.81948,5.23343 4.96099,10.86939 4.17704,18.24234 4.52708,-4.8008 6.69638,-10.94124 6.2228,-18.58331 -3.39834,0.59152 -6.84146,0.86948 -10.39984,0.34097 z"
       id="path100"
       inkscape:connector-curvature="0"
       sodipodi:nodetypes="cccc" />
    <path
       style="fill:#ffffff;stroke:#ffffff;stroke-width:0.95473939px;stroke-linecap:butt;stroke-linejoin:miter;stroke-opacity:1"
       d="m 830.21068,-188.54557 c 4.43574,6.44018 3.4476,12.26403 3.06882,18.1571 7.4178,-4.88674 8.60626,-16.73778 9.89257,-24.0771 -3.87751,2.23171 -7.26132,4.75146 -12.96139,5.92 z"
       id="path102"
       inkscape:connector-curvature="0"
       sodipodi:nodetypes="cccc" />
    <path
       style="fill:#666666;stroke:#666666;stroke-width:0.95473939px;stroke-linecap:butt;stroke-linejoin:miter;stroke-opacity:1"
       d="m 474.18542,-219.63663 c 22.88596,-55.27212 58.89405,-88.4134 127.50095,-124.76681 l -27.72734,58.34816 c 62.39084,8.79144 105.08201,41.70118 133.09162,92.5855 -29.38076,-11.70779 -32.91435,-22.62704 -91.13886,-4.33993 l 29.41522,-33.99626 c -61.34053,16.11946 -81.67129,39.98701 -103.18701,72.16084 -1.22193,-39.01846 31.12452,-89.3583 52.55424,-101.57601 -33.12916,1.2609 -63.32925,-3.15507 -120.50882,41.58451 z"
       id="path4673"
       inkscape:connector-curvature="0"
       sodipodi:nodetypes="ccccccccc" />
    <path
       style="fill:#000000;stroke:#000000;stroke-width:0.95473939px;stroke-linecap:butt;stroke-linejoin:miter;stroke-opacity:1"
       d="m 593.82744,-315.04853 c 10.63322,-21.14185 24.42441,-41.57815 67.17268,-43.98621 -1.83678,-5.11924 -0.37402,-9.4136 1.36393,-13.63914 -19.8367,-11.62798 -23.5607,-20.03344 -35.12073,-30.0061 21.86706,16.85278 28.35962,14.53715 40.13205,17.74862 58.16186,8.18331 73.90715,63.13132 89.43962,105.68556 -10.98137,-20.13371 -20.91789,-46.83542 -37.84854,-55.92045 -15.22213,2.48362 -29.71907,6.82058 -52.85158,-10.91131 -28.24276,1.02614 -53.13713,11.81794 -72.28743,31.02903 z"
       id="path23"
       inkscape:connector-curvature="0"
       sodipodi:nodetypes="ccccccccc" />
    <path
       style="fill:#ff0000;stroke:#ff0000;stroke-width:0.95473939px;stroke-linecap:butt;stroke-linejoin:miter;stroke-opacity:1"
       d="m 669.86554,-375.40171 c -2.50518,10.93108 -1.02292,20.4587 9.54749,30.68806 8.08238,8.66427 24.48641,4.54752 35.4617,0.34096 -6.03462,-15.8949 -19.89403,-26.94589 -45.00919,-31.02904 z"
       id="path40"
       inkscape:connector-curvature="0"
       sodipodi:nodetypes="ccccc" />
    <path
       style="fill:#666666;stroke:#666666;stroke-width:0.95473939px;stroke-linecap:butt;stroke-linejoin:miter;stroke-opacity:1"
       d="m 1122.2585,-217.69922 c -22.8859,-55.27214 -71.666,-100.83845 -140.27286,-137.19185 23.40596,20.50166 29.22026,45.73948 42.04836,69.08901 -62.39074,8.79143 -107.34763,42.77465 -135.35722,93.65896 47.34331,-27.13868 76.91661,-22.50645 106.81087,12.8993 -2.27232,-23.37653 -27.3343,-38.72213 -41.35008,-53.46572 50.49073,14.19057 56.92823,19.40832 86.91223,61.4918 5.5942,-34.10049 -32.3098,-82.84464 -48.45541,-90.12339 0,0 72.48461,-1.09768 129.66411,43.64189 z"
       id="path4673-8"
       inkscape:connector-curvature="0"
       sodipodi:nodetypes="ccccccccc" />
    <path
       style="fill:#000000;stroke:#000000;stroke-width:0.95473939px;stroke-linecap:butt;stroke-linejoin:miter;stroke-opacity:1"
       d="m 1003.6943,-314.28968 c -10.63321,-21.14185 -27.49319,-43.62405 -70.2415,-46.03209 3.86719,-4.62675 3.89224,-10.40116 3.40982,-16.02601 15.33617,-4.32689 24.27096,-15.05513 33.41579,-25.57336 -22.54899,16.85276 -28.35962,14.53713 -40.13197,17.74864 -58.16194,8.18327 -73.9072,63.13131 -89.43971,105.68556 10.98143,-20.13371 20.91794,-46.83545 37.8486,-55.92047 15.22208,2.48362 29.71899,6.82057 52.85152,-10.91131 28.24276,1.02614 53.13711,11.81793 72.28745,31.02904 z"
       id="path23-6"
       inkscape:connector-curvature="0"
       sodipodi:nodetypes="ccccccccc" />
    <path
       style="fill:#ff0000;stroke:#ff0000;stroke-width:0.95473939px;stroke-linecap:butt;stroke-linejoin:miter;stroke-opacity:1"
       d="m 882.2951,-344.37268 c 5.53736,-13.99607 20.41503,-25.87938 43.98625,-31.37 0.30674,13.35977 3.28982,21.72161 -10.22944,34.09783 -6.26241,4.204 -20.67721,3.74792 -33.75681,-2.72783 z"
       id="path42"
       inkscape:connector-curvature="0"
       sodipodi:nodetypes="cccc" />
    <path
       style="fill:#666666;stroke:#666666;stroke-width:0.95473939px;stroke-linecap:butt;stroke-linejoin:miter;stroke-opacity:1"
       d="m 518.0822,-534.81857 c 19.11528,34.51366 66.50442,63.18082 154.57067,89.29598 -16.25246,4.54884 -50.85835,6.37816 -91.20053,-1.3451 -55.20473,-44.48679 -56.95931,-67.02624 -63.37014,-87.95088 z"
       id="path4699"
       inkscape:connector-curvature="0"
       sodipodi:nodetypes="cccc" />
    <path
       style="fill:#4d4d4d;stroke:#000000;stroke-width:0.95473939px;stroke-linecap:butt;stroke-linejoin:miter;stroke-opacity:1"
       d="m 1187.4707,-494.06218 c -19.717,42.41785 -48.084,82.73645 -19.3931,137.24379 l 94.728,46.9911 c -31.8245,-8.47118 -70.5697,-20.33154 -102.3943,-35.83472 l 87.4765,56.71964 c -49.0719,-10.73947 -96.2104,-16.96784 -132.7684,1.49178 36.3388,25.69481 74.0116,51.01906 85.7773,83.53968 l -104.952,18.55678 c 55.8526,51.8372 110.7103,104.953523 204.9013,107.498645 -0.1001,-14.420529 5.8407,-28.841085 12.6802,-43.261625 -1.439,17.38355 -5.3748,31.652033 -3.2925,52.772286 8.5195,-14.963251 13.8847,-32.029446 18.2104,-49.788716 25.8971,12.37085 46.764,35.308214 66.3841,60.864625 22.5903,57.99067237 48.5389,71.296426 109.6458,63.6990719 15.8912,5.7072101 32.0911,18.8241451 46.9911,0.7458366 4.2283,-4.2610844 5.3328,-14.6783851 5.5677,-21.4816955 -4.2226,-43.446696 -28.0818,-75.587695 -43.4216,-109.608478 -6.4371,-33.29842 -8.0926,-64.05788 -8.0182,-95.47394 -43.0407,-42.43408 -64.9575,-88.04145 -60.0443,-144.14327 l -29.4438,10.22399 -0.3918,30.79999 c -20.7837,-24.20283 -47.2886,-43.56439 -72.3512,-64.14657 22.2034,10.29168 45.0485,23.12384 64.1051,39.70927 -6.6451,-74.47163 8.9751,-96.87208 41.0693,-139.57582 -48.8584,10.52014 -100.2261,26.79267 -119.1599,94.45885 l -96.0334,-50.53406 c 3.6,28.79311 5.1312,56.45772 13.7989,88.01503 -26.8531,-47.36415 -44.6749,-93.59941 -59.6712,-139.48147 z"
       id="path54"
       inkscape:connector-curvature="0"
       sodipodi:nodetypes="cccccccccccccccccccccccccccc" />
    <path
       style="fill:#666666;stroke:#666666;stroke-width:0.95473939px;stroke-linecap:butt;stroke-linejoin:miter;stroke-opacity:1"
       d="m 1324.7696,-138.30121 c -22.8245,1.48312 -44.4956,-7.41523 -65.928,-18.45986 15.101,-18.59419 20.3621,-37.58197 68.5652,-54.85209 -15.6994,-49.32066 -33.4255,-60.08829 -70.5527,-79.43891 10.745,19.79893 38.212,41.18016 34.1605,60.97909 -45.1983,-36.35759 -103.7298,-49.35634 -161.3919,-58.01666 36.5953,29.36463 83.9871,45.61917 102.8477,96.51859 l -58.5441,4.74682 38.502,12.65817 -89.6621,-6.32908 c 79.7358,60.56993 144.7189,65.8172 202.0034,42.19393 z"
       id="path56"
       inkscape:connector-curvature="0"
       sodipodi:nodetypes="ccccccccccc" />
    <path
       style="fill:#666666;stroke:#666666;stroke-width:0.95473939px;stroke-linecap:butt;stroke-linejoin:miter;stroke-opacity:1"
       d="m 1301.9227,-169.41925 c 65.452,-7.05039 124.5971,11.04501 160.9001,90.45326 -6.9968,10.575673 -11.2775,17.030574 -5.294,31.767887 6.54,13.541985 17.4636,25.489855 29.4238,37.06084 l -18.1963,-35.337375 c 19.7265,9.997162 29.7797,28.680827 42.7854,43.1583175 13.6809,-5.5899863 25.7687,-18.9689195 37.9105,-32.0823855 -3.5684,11.819545 -11.7656,22.314077 -21.0969,31.6453996 12.0789,-2.737799 19.4861,-12.9501126 26.3712,-23.9977576 l 1.4672,12.165703 c 2.7079,31.180815 -29.6246,40.333816 -43.8878,18.4048648 -3.816,-2.6757645 -3.6744,-2.96764604 -12.1207,-1.3053272 -32.4737,2.1005746 -66.0511,7.3111571 -83.5396,-32.8191506 -14.5536,-37.199402 -37.9042,-67.453709 -61.7225,-97.338666 21.4344,6.73911 39.7766,18.20754 52.7717,37.853927 -15.3584,-31.909197 -46.2484,-59.630067 -105.7721,-79.629537 z"
       id="path58"
       inkscape:connector-curvature="0"
       sodipodi:nodetypes="cccccccccccccccc" />
    <path
       style="fill:#666666;stroke:#666666;stroke-width:0.95473939px;stroke-linecap:butt;stroke-linejoin:miter;stroke-opacity:1"
       d="m 1262.8056,-410.14953 c 101.8084,40.48248 130.3439,76.61093 162.6042,113.00236 -2.8321,-9.51163 -3.6287,-18.20912 -1.4919,-25.7332 1.7801,9.55932 7.5768,23.04348 53.3312,73.09722 9.4102,10.16911 18.3386,22.02154 27.6912,31.14092 -1.6445,17.81346 2.451,40.05617 -7.5521,52.77172 -2.8273,4.82944 -12.4905,11.22946 -16.7825,4.1024 -1.0929,-6.54561 -4.5241,-3.29522 -7.0861,-0.7459 -6.0648,2.09059 -13.3678,2.22804 -19.1066,-7.08595 -13.8955,-42.2851 -29.7778,-70.08632 -48.0234,-96.96571 20.9362,35.22718 13.4684,61.57938 11.934,90.25269 -4.8045,-31.77334 -11.3661,-62.9696 -36.1755,-85.4044 -19.5142,-20.98925 -43.5297,-36.08743 -66.0113,-37.29451 14.107,-3.56263 32.7613,-2.14579 48.8559,8.20478 -19.4984,-51.77464 -59.0566,-87.02944 -102.1871,-119.34242 z"
       id="path60"
       inkscape:connector-curvature="0"
       sodipodi:nodetypes="ccccccccccccccc" />
    <path
       style="fill:#000000;stroke:#000000;stroke-width:0.95473939px;stroke-linecap:butt;stroke-linejoin:miter;stroke-opacity:1"
       d="m 1326.9523,-265.81978 c 10.204,28.90263 41.8039,17.30642 63.4006,42.51573 l -22.1903,-49.04227 c 13.9855,10.62894 49.5004,44.06178 44.1941,91.18507 42.6287,44.45395 38.5998,57.99285 55.7553,90.625651 -53.4658,-99.341131 -115.1559,-120.022791 -174.3519,-82.047921 12.98,-16.76101 27.448,-31.72819 53.8905,-32.25975 -20.2717,-18.2141 -18.3658,-39.9299 -20.6983,-60.97651 z"
       id="path62"
       inkscape:connector-curvature="0"
       sodipodi:nodetypes="cccccccc" />
    <path
       style="fill:#ff0000;stroke:#ff0000;stroke-width:0.95473939px;stroke-linecap:butt;stroke-linejoin:miter;stroke-opacity:1"
       d="m 1345.413,-232.4412 c 15.3858,4.76778 44.9399,9.13715 53.7041,41.21042 -24.391,2.32741 -54.7681,-12.06855 -53.7041,-41.21042 z"
       id="path64"
       inkscape:connector-curvature="0"
       sodipodi:nodetypes="ccc" />
    <path
       style="fill:#000000;stroke:#000000;stroke-width:0.95473939px;stroke-linecap:butt;stroke-linejoin:miter;stroke-opacity:1"
       d="m 1235.6348,-340.3046 c -18.9842,-17.14279 -44.6087,-36.23966 -54.5882,-55.37953 -4.8631,-9.13471 -5.3119,-14.83801 -2.6372,-27.95347 l -2.9009,-18.98726 c -2.8164,11.35016 -9.3146,33.84342 -6.5927,45.88588 1.67,10.42582 40.6203,44.58325 66.719,56.43438 z"
       id="path66"
       inkscape:connector-curvature="0"
       sodipodi:nodetypes="cccccc" />
    <path
       style="fill:#000000;stroke:#000000;stroke-width:0.95473939px;stroke-linecap:butt;stroke-linejoin:miter;stroke-opacity:1"
       d="m 1486.9526,-10.137263 -18.1963,-35.337375 c 14.2617,6.466947 24.8317,20.692712 42.7854,43.1583175 13.8423,-6.1705655 24.4208,-17.4825075 37.9105,-32.0823855 -3.0178,11.223501 -10.2811,20.390046 -21.0969,31.6453996 18.3198,-3.6460436 30.4123,-15.3418326 37.7109,-29.0083256 5.7987,-14.473687 0.6989,-25.220393 -8.4389,-32.963996 -23.3724,-17.631313 -47.6874,-21.853218 -73.5757,-21.888051 -6.8351,0.621068 -13.7039,1.510597 -21.2288,7.647689 -16.0339,12.822207 -13.4363,33.978108 24.1298,68.828727 z"
       id="path68"
       inkscape:connector-curvature="0"
       sodipodi:nodetypes="cccccccccc" />
    <path
       style="fill:#4d4d4d;stroke:#000000;stroke-width:0.95473939px;stroke-linecap:butt;stroke-linejoin:miter;stroke-opacity:1"
       d="m 1282.0802,-23.386826 c 8.2292,27.6909078 8.4988,60.49078 21.0651,77.595372 2.0744,5.280428 50.0157,36.946222 91.7718,29.535721 6.7754,-1.24146 11.0827,-7.541698 9.9946,-19.109821 -64.3021,22.935042 -99.4031,-47.488983 -102.8478,-76.566937 z"
       id="path81"
       inkscape:connector-curvature="0"
       sodipodi:nodetypes="cccccc" />
    <path
       style="fill:#ff0000;stroke:#ff0000;stroke-width:0.95473939px;stroke-linecap:butt;stroke-linejoin:miter;stroke-opacity:1"
       d="m 1426.8898,-5.2943967 c -0.4583,20.0935137 -3.1832,36.6674727 -10.9902,52.8417017 21.1599,-8.406991 35.4773,-21.571692 44.8933,-39.205887 -15.6177,-2.3953173 -24.6781,-6.7430817 -33.9031,-13.6358147 z"
       id="path83"
       inkscape:connector-curvature="0"
       sodipodi:nodetypes="cccc" />
    <path
       style="fill:#ff0000;stroke:#ff0000;stroke-width:0.95473939px;stroke-linecap:butt;stroke-linejoin:miter;stroke-opacity:1"
       d="m 1510.9788,10.108978 c -0.4584,20.093485 -8.9537,34.876643 -16.7607,51.050899 23.3043,-5.516665 40.6155,-31.064822 45.0901,-44.503378 -7.3314,1.692901 -13.1722,0.361686 -28.3294,-6.547521 z"
       id="path83-0"
       inkscape:connector-curvature="0"
       sodipodi:nodetypes="cccc" />
    <path
       style="fill:#ff0000;stroke:#ff0000;stroke-width:0.95473939px;stroke-linecap:butt;stroke-linejoin:miter;stroke-opacity:1"
       d="m 1329.2884,42.825513 c 14.8733,-5.151209 22.9745,-16.49565 29.558,-29.921088 1.0101,16.496346 -3.1408,32.083952 -11.1937,45.838032 -7.4332,-4.307581 -14.5764,-11.298989 -18.3643,-15.916944 z"
       id="path101"
       inkscape:connector-curvature="0"
       sodipodi:nodetypes="cccc" />
    <path
       style="fill:#d35f8d;stroke:#ff00ff;stroke-width:0.95473939px;stroke-linecap:butt;stroke-linejoin:miter;stroke-opacity:1"
       d="m 1186.3735,-35.833276 c 27.8624,-34.438082 87.2977,-60.711708 142.7843,-21.603293 -6.6716,-7.69627 -14.8062,-15.661314 -6.4134,-20.590671 6.6191,-3.156555 23.2544,-4.407371 28.3542,3.037982 l 3.3756,20.590671 2.3628,-20.590671 c 10.089,2.994517 20.2146,5.926846 23.6285,20.253068 0.043,43.911275 -15.0143,62.5188387 -48.2698,50.6326927 -60.2035,-28.1133317 -85.7274,-51.3491507 -145.8222,-31.7297787 z"
       id="path116"
       inkscape:connector-curvature="0"
       sodipodi:nodetypes="ccccccccc" />
    <path
       style="fill:#ffffff;stroke:#ffffff;stroke-width:0.95473939px;stroke-linecap:butt;stroke-linejoin:miter;stroke-opacity:1"
       d="m 248.13412,59.004583 -14.29664,-19.224677 -0.23857,16.707939 -11.93425,-13.127674 -0.23856,17.543343 -8.47319,-15.753197 -3.72958,23.033076 c 13.62747,1.20149 26.73904,-1.45653 38.91079,-9.17881 z"
       id="path103-5"
       inkscape:connector-curvature="0"
       sodipodi:nodetypes="cccccccc" />
    <path
       style="fill:#ff0000;stroke:#ff0000;stroke-width:0.95473939px;stroke-linecap:butt;stroke-linejoin:miter;stroke-opacity:1"
       d="m 187.29394,38.944502 c 0.66702,10.805423 3.42442,20.88912 10.11815,27.075453 6.09811,1.685171 13.39467,2.554021 20.43339,2.625898 C 206.97354,60.236402 196.286,51.427194 187.29394,38.944502 Z"
       id="path105-9"
       inkscape:connector-curvature="0"
       sodipodi:nodetypes="cccc" />
    <path
       style="fill:#ffffff;stroke:#ffffff;stroke-width:0.95473939px;stroke-linecap:butt;stroke-linejoin:miter;stroke-opacity:1"
       d="m 200.9586,-57.006781 c -1.94061,13.773854 -1.60991,27.093384 -5.82558,41.322243 -1.52954,3.853786 -3.37388,7.7075582 -7.60038,11.561329 -4.69294,4.73639502 -12.67844,5.5216398 -19.39316,7.8318149 L 137.55785,15.269935 c -1.04425,4.317903 -0.80128,8.421219 -3.72931,13.053094 -5.1452,-5.982815 -5.13048,-11.496566 -6.71311,-17.155514 -1.45787,5.842886 -0.71249,12.787358 -4.67502,17.377873 -5.71701,-3.598961 -6.33735,-10.38121 -9.49687,-15.140164 -1.53408,6.789911 -1.14896,13.899666 -4.65254,20.361337 -6.14519,-4.339781 -10.140748,-9.1095 -14.631358,-13.780224 1.44784,5.490135 2.895679,11.175694 4.343507,16.349504 -5.095974,-2.297057 -7.284643,-5.009435 -10.047,-7.639893 L 65.05205,30.187727 C 60.341327,25.463715 58.965577,22.292915 56.847379,16.761714 68.370434,19.937408 81.483074,11.292414 91.444493,7.0878282 157.018,15.815973 180.97318,-3.3408918 200.9586,-57.006781 Z"
       id="path70-0"
       inkscape:connector-curvature="0"
       sodipodi:nodetypes="ccccccccccccccccc" />
    <path
       style="fill:#4d4d4d;stroke:#000000;stroke-width:0.95473939px;stroke-linecap:butt;stroke-linejoin:miter;stroke-opacity:1"
       d="m 408.31606,-493.80003 c 19.71698,42.41785 48.08401,82.73643 19.39314,137.24375 l -94.72808,46.99113 c 31.82463,-8.47119 70.56978,-20.33157 102.39441,-35.83476 l -87.47662,56.71968 c 49.07187,-10.73948 96.21043,-16.96787 132.76842,1.49176 -36.33874,25.69479 -74.01149,51.01906 -85.77728,83.5397 l 104.95201,18.55677 c -55.85263,51.8372 -110.71036,104.953493 -204.90122,107.498638 0.1003,-14.420529 -5.84083,-28.841058 -12.68018,-43.261598 1.43901,17.38352 5.3748,31.651995 3.29257,52.772247 -8.51973,-14.963227 -13.8849,-32.029417 -18.2105,-49.788707 -25.89712,12.37088 -46.76405,35.308217 -66.38413,60.864639 C 178.36822,0.98388504 152.41975,14.289639 91.31264,6.6922706 75.421601,12.399493 59.221654,25.516415 44.32165,7.43812 40.093268,3.1770368 38.988973,-7.2402639 38.75389,-14.043576 c 4.222755,-43.446699 28.081913,-75.587675 43.421608,-109.608494 6.437112,-33.29838 8.09275,-64.05783 8.018401,-95.47391 43.040491,-42.43409 64.957431,-88.04146 60.044131,-144.14326 l 29.44391,10.22397 0.39181,30.79997 c 20.78348,-24.20281 47.28864,-43.56438 72.35119,-64.14654 -22.20338,10.29166 -45.04849,23.12382 -64.1052,39.70925 12.96704,-66.58156 -6.23849,-98.0448 -41.06912,-139.5758 48.85819,10.52012 100.22597,26.79267 119.15979,94.45883 l 96.03334,-50.53404 c -3.60003,28.79308 -5.13116,56.45768 -13.79891,88.01501 26.85307,-47.36416 44.67494,-93.59941 59.67122,-139.48144 z"
       id="path54-0"
       inkscape:connector-curvature="0"
       sodipodi:nodetypes="cccccccccccccccccccccccccccc" />
    <path
       style="fill:#666666;stroke:#666666;stroke-width:0.95473939px;stroke-linecap:butt;stroke-linejoin:miter;stroke-opacity:1"
       d="m 271.01722,-138.03911 c 22.82454,1.48315 44.49543,-7.41522 65.92798,-18.45982 -15.10106,-18.5942 -20.36209,-37.582 -68.56516,-54.85211 15.69941,-49.32066 33.42542,-60.08827 70.55266,-79.43888 -10.74503,19.79892 -38.21188,41.18011 -34.16042,60.97906 45.19824,-36.35758 103.72968,-49.35634 161.39171,-58.01666 -36.59524,29.36463 -83.98699,45.61917 -102.84768,96.5186 l 58.54415,4.74683 -38.50198,12.65816 89.66205,-6.32909 c -79.73585,60.56994 -144.71902,65.81719 -202.00331,42.19391 z"
       id="path56-3"
       inkscape:connector-curvature="0"
       sodipodi:nodetypes="ccccccccccc" />
    <path
       style="fill:#666666;stroke:#666666;stroke-width:0.95473939px;stroke-linecap:butt;stroke-linejoin:miter;stroke-opacity:1"
       d="m 293.86409,-169.15713 c -65.45196,-7.0504 -124.59704,11.045 -160.90022,90.453251 6.99688,10.575697 11.27767,17.030586 5.29416,31.767876 -6.53993,13.541997 -17.46364,25.489866 -29.42384,37.060867 l 18.19632,-35.337379 C 107.30411,-35.215342 97.250949,-16.531697 84.245023,-2.0541928 70.564182,-7.6441803 58.476537,-21.023105 46.334475,-34.136595 c 3.568438,11.819557 11.76563,22.314094 21.09707,31.6454163 C 55.35273,-5.2289778 47.945448,-15.441292 41.060234,-26.488917 l -1.467225,12.165683 c -2.707789,31.180815 29.6247,40.333816 43.887908,18.4048643 3.816103,-2.6757645 3.674359,-2.9676449 12.120673,-1.305326 32.47371,2.1005734 66.05105,7.3111567 83.5397,-32.8191673 14.55352,-37.19939 37.90413,-67.453686 61.72249,-97.338657 -21.43445,6.7391 -39.77667,18.20755 -52.77177,37.853942 15.35828,-31.909202 46.24841,-59.630082 105.77208,-79.629552 z"
       id="path58-2"
       inkscape:connector-curvature="0"
       sodipodi:nodetypes="cccccccccccccccc" />
    <path
       style="fill:#666666;stroke:#666666;stroke-width:0.95473939px;stroke-linecap:butt;stroke-linejoin:miter;stroke-opacity:1"
       d="m 332.98112,-409.88741 c -101.80837,40.48251 -130.34374,76.61094 -162.60401,113.00236 2.83201,-9.51163 3.6286,-18.20909 1.49182,-25.73322 -1.78028,9.55933 -7.5767,23.0435 -53.33115,73.09726 -9.4102,10.16909 -18.33873,22.02152 -27.691172,31.1409 1.644548,17.81346 -2.451036,40.05618 7.552102,52.77173 2.82707,4.82942 12.49043,11.22945 16.78245,4.10238 1.0928,-6.5456 4.52418,-3.29521 7.08594,-0.74587 6.06495,2.09056 13.36779,2.22801 19.10685,-7.08597 13.89533,-42.2851 29.77769,-70.08633 48.02335,-96.9657 -20.93621,35.22718 -13.46849,61.57937 -11.93426,90.2527 4.80472,-31.77335 11.36632,-62.96961 36.1756,-85.40444 19.5143,-20.98925 43.52978,-36.08742 66.01131,-37.29449 -14.10689,-3.56262 -32.76121,-2.1458 -48.85578,8.20479 19.4984,-51.77463 59.05657,-87.02943 102.18695,-119.34243 z"
       id="path60-9"
       inkscape:connector-curvature="0"
       sodipodi:nodetypes="ccccccccccccccc" />
    <path
       style="fill:#000000;stroke:#000000;stroke-width:0.95473939px;stroke-linecap:butt;stroke-linejoin:miter;stroke-opacity:1"
       d="m 268.83457,-265.55766 c -10.204,28.90264 -41.80395,17.30643 -63.40061,42.51575 l 22.19026,-49.04228 c -13.98545,10.62891 -49.50032,44.06179 -44.19398,91.18505 -42.62876,44.45395 -38.60004,57.99289 -55.75544,90.625653 53.4658,-99.341153 115.1558,-120.022773 174.35198,-82.047903 -12.98,-16.76103 -27.44807,-31.72821 -53.89065,-32.25973 20.27159,-18.21413 18.36601,-39.92994 20.69844,-60.97654 z"
       id="path62-0"
       inkscape:connector-curvature="0"
       sodipodi:nodetypes="cccccccc" />
    <path
       style="fill:#ff0000;stroke:#ff0000;stroke-width:0.95473939px;stroke-linecap:butt;stroke-linejoin:miter;stroke-opacity:1"
       d="m 250.37388,-232.17905 c -15.38583,4.76775 -44.93992,9.13714 -53.7041,41.21042 24.39099,2.32738 54.768,-12.06858 53.7041,-41.21042 z"
       id="path64-7"
       inkscape:connector-curvature="0"
       sodipodi:nodetypes="ccc" />
    <path
       style="fill:#000000;stroke:#000000;stroke-width:0.95473939px;stroke-linecap:butt;stroke-linejoin:miter;stroke-opacity:1"
       d="m 360.15183,-340.0425 c 18.98427,-17.14276 44.60884,-36.23961 54.58838,-55.37948 4.86308,-9.13472 5.31175,-14.83804 2.63708,-27.95348 l 2.9009,-18.98727 c 2.81644,11.35015 9.3147,33.84343 6.59275,45.88587 -1.66999,10.42583 -40.62035,44.58327 -66.71911,56.43436 z"
       id="path66-4"
       inkscape:connector-curvature="0"
       sodipodi:nodetypes="cccccc" />
    <path
       style="fill:#000000;stroke:#000000;stroke-width:0.95473939px;stroke-linecap:butt;stroke-linejoin:miter;stroke-opacity:1"
       d="m 108.83419,-9.875136 18.19632,-35.337379 C 112.76863,-38.74558 102.19877,-24.519779 84.245023,-2.0541928 70.402913,-8.2247595 59.824222,-19.536681 46.334475,-34.136595 49.352233,-22.913082 56.615767,-13.746532 67.431545,-2.4911787 49.111663,-6.1372223 37.019078,-17.833012 29.720653,-31.499486 23.921945,-45.973185 29.02181,-56.719913 38.159476,-64.463493 61.531878,-82.09483 85.846909,-86.316735 111.73507,-86.351556 c 6.83535,0.621057 13.70411,1.510609 21.2288,7.647677 16.03413,12.822219 13.43653,33.978132 -24.12968,68.828743 z"
       id="path68-9"
       inkscape:connector-curvature="0"
       sodipodi:nodetypes="cccccccccc" />
    <path
       style="fill:#4d4d4d;stroke:#000000;stroke-width:0.95473939px;stroke-linecap:butt;stroke-linejoin:miter;stroke-opacity:1"
       d="m 313.70656,-23.124691 c -8.22915,27.6908993 -8.49874,60.49076 -21.06499,77.595365 -2.07433,5.280414 -50.01571,36.946207 -91.77177,29.535693 -6.77542,-1.24146 -11.0827,-7.541684 -9.99458,-19.109793 64.30204,22.935055 99.40304,-47.488983 102.84765,-76.566937 z"
       id="path81-7"
       inkscape:connector-curvature="0"
       sodipodi:nodetypes="cccccc" />
    <path
       style="fill:#ff0000;stroke:#ff0000;stroke-width:0.95473939px;stroke-linecap:butt;stroke-linejoin:miter;stroke-opacity:1"
       d="m 168.89703,-5.032269 c 0.45828,20.093513 3.18319,36.667486 10.99017,52.841715 C 158.7274,39.402442 144.41004,26.237741 134.99395,8.6035446 150.61166,6.2082272 159.67204,1.8604768 168.89703,-5.032269 Z"
       id="path83-4"
       inkscape:connector-curvature="0"
       sodipodi:nodetypes="cccc" />
    <path
       style="fill:#ff0000;stroke:#ff0000;stroke-width:0.95473939px;stroke-linecap:butt;stroke-linejoin:miter;stroke-opacity:1"
       d="M 84.808133,10.371104 C 85.266417,30.464591 93.761672,45.247749 101.56865,61.422005 78.264448,55.90534 60.953122,30.357196 56.478566,16.918627 c 7.331312,1.692901 13.172147,0.361684 28.329567,-6.547523 z"
       id="path83-0-2"
       inkscape:connector-curvature="0"
       sodipodi:nodetypes="cccc" />
    <path
       style="fill:#ff0000;stroke:#ff0000;stroke-width:0.95473939px;stroke-linecap:butt;stroke-linejoin:miter;stroke-opacity:1"
       d="M 266.49853,43.08764 C 251.62514,37.936431 243.52396,26.59199 236.9403,13.166553 c -1.0099,16.496344 3.14092,32.083964 11.19382,45.83803 7.43322,-4.30758 14.5764,-11.298988 18.36441,-15.916943 z"
       id="path101-1"
       inkscape:connector-curvature="0"
       sodipodi:nodetypes="cccc" />
    <path
       style="fill:#d35f8d;stroke:#ff00ff;stroke-width:0.95473939px;stroke-linecap:butt;stroke-linejoin:miter;stroke-opacity:1"
       d="m 409.4132,-35.571142 c -27.86248,-34.438093 -87.29768,-60.711731 -142.78415,-21.603293 6.67153,-7.696269 14.80626,-15.661337 6.41344,-20.590682 -6.61911,-3.156555 -23.25446,-4.407371 -28.35433,3.037971 l -3.37547,20.59067 -2.36291,-20.59067 c -10.089,2.994551 -20.21449,5.926869 -23.62861,20.253068 -0.0427,43.91129 15.01446,62.5188544 48.26979,50.6327072 60.20351,-28.1133352 85.72751,-51.3491542 145.82224,-31.7297712 z"
       id="path116-9"
       inkscape:connector-curvature="0"
       sodipodi:nodetypes="ccccccccc" />
    <flowRoot
       xml:space="preserve"
       id="flowRoot166"
       style="font-style:normal;font-variant:normal;font-weight:normal;font-stretch:normal;font-size:40px;line-height:1.25;font-family:'Agency FB';-inkscape-font-specification:'Agency FB';letter-spacing:0px;word-spacing:0px;fill:#000000;fill-opacity:1;stroke:none"
       transform="matrix(0.26458333,0,0,0.26458333,-221.10889,-727.14193)"><flowRegion
         id="flowRegion168"
         style="font-style:normal;font-variant:normal;font-weight:normal;font-stretch:normal;font-family:'Agency FB';-inkscape-font-specification:'Agency FB'"><rect
           id="rect170"
           width="3084.7534"
           height="1661.7009"
           x="2315.7747"
           y="2753.7244"
           style="font-style:normal;font-variant:normal;font-weight:normal;font-stretch:normal;font-family:'Agency FB';-inkscape-font-specification:'Agency FB'" /></flowRegion><flowPara
         id="flowPara174"
         style="font-style:normal;font-variant:normal;font-weight:normal;font-stretch:condensed;font-size:533.333px;font-family:'Agency FB';-inkscape-font-specification:'Agency FB Condensed';text-align:center;text-anchor:middle;fill:#ffffff;stroke:#000000">CERBERUS</flowPara></flowRoot>
    <flowRoot
       xml:space="preserve"
       id="flowRoot180"
       style="font-style:normal;font-weight:normal;font-size:40px;line-height:1.25;font-family:sans-serif;letter-spacing:0px;word-spacing:0px;fill:#000000;fill-opacity:1;stroke:none"
       transform="matrix(0.26458333,0,0,0.26458333,-66.760323,-792.62297)"><flowRegion
         id="flowRegion182"><rect
           id="rect184"
           width="707.10669"
           height="645.23492"
           x="2872.6213"
           y="3460.8311" /></flowRegion><flowPara
         id="flowPara186"
         style="font-style:normal;font-variant:normal;font-weight:normal;font-stretch:normal;font-size:533.333px;font-family:'Agency FB';-inkscape-font-specification:'Agency FB';text-align:center;text-anchor:middle;fill:#ffffff;stroke:#000000">DEV</flowPara></flowRoot>
  </g>
</svg>
